<svg width="24" height="24" viewBox="0 0 24 24" fill="none" xmlns="http://www.w3.org/2000/svg">
<g clip-path="url(#clip0)">
<path d="M15.62 18.19C15.3965 17.7549 15.2627 17.2792 15.2266 16.7913C15.1905 16.3035 15.2529 15.8133 15.41 15.35C15.7277 14.2874 15.853 13.1767 15.78 12.07C15.78 11.53 15.78 10.98 15.78 10.43C15.7489 9.99756 15.6511 9.57251 15.49 9.17C15.21 8.54 14.78 7.96002 14.55 7.32002C14.285 6.64022 14.1167 5.9266 14.05 5.20003C14.0642 4.43447 14.1176 3.67009 14.21 2.90999C14.2279 2.78941 14.2177 2.66634 14.1801 2.55037C14.1426 2.4344 14.0787 2.3287 13.9934 2.24153C13.9082 2.15437 13.804 2.0881 13.6889 2.04793C13.5738 2.00776 13.451 1.99481 13.33 2.01003C12.38 2.01003 11.44 2.01003 10.49 2.01003C10.3766 1.9973 10.2618 2.01028 10.1541 2.04799C10.0464 2.08571 9.94855 2.14717 9.86786 2.22786C9.78717 2.30855 9.72567 2.40641 9.68796 2.51412C9.65024 2.62182 9.63727 2.73659 9.64999 2.84999C9.71999 3.64999 9.36999 4.50003 9.89999 5.26003C9.94999 5.32003 9.89999 5.45001 9.89999 5.55001C9.67328 6.75662 9.21484 7.90787 8.55002 8.94002C8.29994 9.32456 8.13301 9.75718 8.06 10.21C8 10.81 8.13002 11.43 8.11002 12.03C8.03484 13.0859 8.15343 14.1467 8.45999 15.16C8.48604 15.224 8.50289 15.2913 8.51001 15.36C8.80546 16.2676 8.73365 17.2547 8.31 18.11C8.18516 18.3611 8.10401 18.6316 8.07001 18.91C7.99807 19.1969 7.98903 19.4959 8.04355 19.7866C8.09807 20.0773 8.21484 20.3527 8.38583 20.594C8.55683 20.8353 8.77802 21.0367 9.03421 21.1845C9.2904 21.3322 9.5755 21.4228 9.87 21.45C10.56 21.55 11.26 21.54 12.27 21.59C12.88 21.53 13.81 21.45 14.72 21.32C14.9758 21.2779 15.2053 21.1381 15.36 20.93C15.6512 20.5414 15.8294 20.08 15.8753 19.5966C15.9212 19.1132 15.8328 18.6265 15.62 18.19V18.19ZM10.68 3.02999H13.19V4.19002H10.68V3.02999ZM10.95 5.25002H12.95C13.1048 6.82166 13.6477 8.33022 14.53 9.64003H9.20999C10.1152 8.32747 10.7102 6.8263 10.95 5.25002V5.25002ZM9.19 10.69H14.73V12.69H9.19V10.69ZM13.8 20.45C12.44 20.5 11.09 20.45 9.73001 20.45C9.61628 20.4256 9.51029 20.3736 9.42136 20.2987C9.33243 20.2237 9.26328 20.128 9.22 20.02C9.06449 19.611 9.04002 19.1636 9.14999 18.74C9.76926 17.3111 9.80872 15.6974 9.26001 14.24C9.26001 14.11 9.21001 13.98 9.17001 13.82H14.7C14.56 14.51 14.41 15.17 14.29 15.82C14.088 16.6855 14.1941 17.5943 14.59 18.39C14.7206 18.6388 14.8021 18.9104 14.83 19.19C14.9 19.93 14.56 20.43 13.8 20.43V20.45Z" fill="black"/>
<path d="M13.79 19.05H10.06C9.72 19.05 9.40999 19.14 9.42999 19.57C9.44999 20 9.74 20.06 10.09 20.06H13.77C14.12 20.06 14.42 19.98 14.43 19.56C14.44 19.14 14.14 19.05 13.79 19.05Z" fill="black"/>
</g>
<defs>
<clipPath id="clip0">
<rect width="7.89" height="19.59" fill="white" transform="translate(8 2)"/>
</clipPath>
</defs>
</svg>
