<svg width="24" height="24" viewBox="0 0 24 24" fill="none" xmlns="http://www.w3.org/2000/svg">
<path d="M20.7825 9.9675L12.75 1.9425C12.47 1.66081 12.0897 1.50167 11.6925 1.5H6C5.60218 1.5 5.22064 1.65804 4.93934 1.93934C4.65804 2.22064 4.5 2.60218 4.5 3V4.5H6V3H11.6925L19.1925 10.5L18.2175 11.4675L19.2825 12.5325L20.7825 11.0325C20.8528 10.9628 20.9086 10.8798 20.9467 10.7884C20.9847 10.697 21.0043 10.599 21.0043 10.5C21.0043 10.401 20.9847 10.303 20.9467 10.2116C20.9086 10.1202 20.8528 10.0372 20.7825 9.9675Z" fill="current"/>
<path fill-rule="evenodd" clip-rule="evenodd" d="M11.7121 22.4443C11.8034 22.4817 11.9013 22.5006 12 22.5C12.0987 22.5006 12.1966 22.4817 12.2879 22.4443C12.3793 22.407 12.4624 22.352 12.5325 22.2825L19.2825 15.5325C19.3528 15.4628 19.4086 15.3798 19.4467 15.2884C19.4847 15.197 19.5043 15.099 19.5043 15C19.5043 14.901 19.4847 14.803 19.4467 14.7116C19.4086 14.6202 19.3528 14.5372 19.2825 14.4675L11.25 6.4425C10.97 6.16081 10.5897 6.00167 10.1925 6H4.5C4.10218 6 3.72064 6.15804 3.43934 6.43934C3.15804 6.72064 3 7.10218 3 7.5V13.1925C3.00167 13.5897 3.16081 13.97 3.4425 14.25L11.4675 22.2825C11.5376 22.352 11.6207 22.407 11.7121 22.4443ZM9 10.5C9 11.3284 8.32843 12 7.5 12C6.67157 12 6 11.3284 6 10.5C6 9.67157 6.67157 9 7.5 9C8.32843 9 9 9.67157 9 10.5Z" fill="#current"/>
</svg>
