<svg width="30" height="30" viewBox="0 0 8 8" fill="none" xmlns="http://www.w3.org/2000/svg">
<path d="M4 7.23438C2.21875 7.23438 0.765625 5.78125 0.765625 4C0.765625 3.21875 1.04688 2.45312 1.57813 1.85938L1.92188 2.17188C1.46875 2.67188 1.23438 3.32813 1.23438 4C1.23438 5.53125 2.46875 6.76563 4 6.76563C4.40625 6.76563 4.79688 6.6875 5.15625 6.51563L5.34375 6.9375C4.92188 7.14062 4.46875 7.23438 4 7.23438Z" fill="#651C32"/>
<path d="M6.40625 6.15625L6.0625 5.84375C6.51562 5.34375 6.76562 4.6875 6.76562 4C6.76562 2.46875 5.53125 1.23438 4 1.23438C3.59375 1.23438 3.20312 1.3125 2.84375 1.48438L2.65625 1.0625C3.07812 0.875004 3.53125 0.765625 4 0.765625C5.78125 0.765625 7.23437 2.21875 7.23437 4C7.23437 4.79688 6.9375 5.5625 6.40625 6.15625Z" fill="#651C32"/>
<path d="M2.25 3.75H1.75V2.25H0.25V1.75H2.25V3.75Z" fill="#651C32"/>
<path d="M7.75 6.25H5.75V4.25H6.25V5.75H7.75V6.25Z" fill="#651C32"/>
</svg>
