<svg width="45" height="59" viewBox="0 0 45 15" fill="none" xmlns="http://www.w3.org/2000/svg">
<path d="M44.7198 9.23862L36.838 36.3269L41.1288 45.6517C41.7644 47.0473 41.9592 48.6051 41.6872 50.1154C41.4151 51.6257 40.6892 53.016 39.6072 54.099L39.5377 54.1675C38.9322 54.7626 38.4922 55.5065 38.2614 56.3254C38.0306 57.1444 38.017 58.0097 38.2219 58.8356H35.5493C35.3601 57.6515 35.4565 56.4391 35.8305 55.3003C36.2044 54.1615 36.8449 53.1296 37.6982 52.2914L37.7521 52.2372C38.4554 51.5353 38.9276 50.6335 39.1053 49.6534C39.2829 48.6733 39.1574 47.6621 38.7457 46.7559L34.0433 36.5352L42.2004 8.49959C42.3744 7.90521 42.4249 7.28119 42.3486 6.66637C42.2723 6.05155 42.0708 5.45911 41.7569 4.92592C41.4429 4.39273 41.0231 3.93023 40.5236 3.5672C40.024 3.20417 39.4555 2.94838 38.8534 2.81577C38.2513 2.68316 37.6284 2.67657 37.0237 2.79641C36.4189 2.91624 35.8451 3.15993 35.3381 3.51231C34.8311 3.86468 34.4017 4.3182 34.0766 4.84462C33.7515 5.37104 33.5378 5.9591 33.4486 6.57217L29.0968 36.1044H26.6583L24.5037 21.451C24.373 20.5608 24.028 19.7161 23.4987 18.9904C22.9693 18.2648 22.2716 17.68 21.4663 17.287C20.661 16.894 19.7723 16.7046 18.8776 16.7354C17.9829 16.7661 17.1092 17.016 16.3324 17.4634L5.18046 23.8834C4.58803 24.2089 4.06855 24.6533 3.65433 25.1892C3.24012 25.7251 2.94004 26.3409 2.77275 26.9983C2.60546 27.6557 2.57455 28.3407 2.68194 29.0107C2.78932 29.6806 3.03271 30.3212 3.39696 30.8926C3.76121 31.4639 4.23852 31.9539 4.79922 32.3318C5.35991 32.7098 5.99199 32.9678 6.65612 33.0897C7.32026 33.2116 8.00225 33.1949 8.65967 33.0405C9.31709 32.8862 9.93588 32.5975 10.4775 32.1924L10.5088 32.1696L18.7596 26.3773L21.7104 36.5338L17.0265 46.706C16.6057 47.625 16.4764 48.6519 16.6562 49.6473C16.836 50.6427 17.3161 51.5583 18.0314 52.27C18.1294 52.367 18.2273 52.4626 18.3281 52.5554C19.1781 53.3479 19.8359 54.326 20.2505 55.4143C20.6652 56.5027 20.8257 57.6722 20.7197 58.8327H18.0882C18.2004 58.0346 18.1183 57.2211 17.8488 56.4619C17.5793 55.7027 17.1306 55.0207 16.5411 54.4742C16.4233 54.3629 16.3083 54.2502 16.1933 54.1375C15.0967 53.045 14.3607 51.64 14.085 50.1129C13.8093 48.5859 14.0072 47.0105 14.6519 45.6003L18.9228 36.3269L17.2692 30.6345L12.0176 34.3167C11.1872 34.9333 10.2397 35.3719 9.23381 35.6053C8.2279 35.8387 7.18502 35.862 6.1698 35.6736C5.15459 35.4852 4.1887 35.0892 3.33199 34.5102C2.47528 33.9312 1.74603 33.1815 1.18944 32.3075C0.632844 31.4336 0.260775 30.454 0.0962935 29.4296C-0.0681883 28.4052 -0.0215773 27.3577 0.23324 26.3522C0.488058 25.3466 0.94565 24.4043 1.57765 23.5838C2.20965 22.7633 3.00258 22.082 3.90729 21.5822L15.0266 15.1807C16.1731 14.5194 17.4629 14.1497 18.7839 14.1036C20.1049 14.0576 21.4171 14.3368 22.6063 14.9167C23.7956 15.4967 24.8258 16.3599 25.6075 17.4313C26.3891 18.5028 26.8985 19.7499 27.0912 21.0643L27.879 26.4172L30.8597 6.18553C31.0019 5.21598 31.341 4.28621 31.856 3.45403C32.371 2.62186 33.0508 1.90506 33.8532 1.34824C34.6555 0.791418 35.5633 0.406474 36.52 0.217331C37.4767 0.0281888 38.4618 0.0389026 39.4142 0.248801C40.3666 0.4587 41.2658 0.863288 42.056 1.43742C42.8462 2.01156 43.5104 2.74297 44.0074 3.58615C44.5043 4.42933 44.8234 5.36625 44.9447 6.33866C45.0661 7.31108 44.9871 8.2982 44.7127 9.23862H44.7198ZM29.4005 48.4508L29.0287 47.7375C29.4763 47.7216 29.9032 47.5437 30.2305 47.2364C30.5579 46.9291 30.7637 46.5132 30.81 46.0654C30.8325 45.8116 30.8021 45.5559 30.7208 45.3146C30.6396 45.0733 30.5092 44.8516 30.338 44.6637C30.1669 44.4758 29.9586 44.3258 29.7266 44.2233C29.4946 44.1207 29.2438 44.0678 28.9904 44.0681H26.8613C26.3973 44.0631 25.9483 44.2326 25.6022 44.5433C25.2561 44.8539 25.038 45.2833 24.9906 45.7473C24.9686 45.9972 24.9978 46.249 25.0764 46.4872C25.155 46.7253 25.2813 46.9448 25.4476 47.1319C25.6138 47.3191 25.8165 47.47 26.043 47.5754C26.2696 47.6808 26.5152 47.7384 26.7648 47.7446L26.3929 48.4579C26.1083 49.0049 25.68 49.4629 25.1544 49.7821C24.6289 50.1013 24.0263 50.2695 23.4122 50.2684V52.2415C24.3051 52.2416 25.1837 52.0157 25.9668 51.5845C26.7499 51.1534 27.4124 50.531 27.8932 49.7748C28.3751 50.5315 29.0388 51.1541 29.8232 51.5849C30.6076 52.0158 31.4873 52.2411 32.3812 52.2401V50.267C31.7666 50.2674 31.1637 50.0983 30.6381 49.778C30.1125 49.4578 29.6845 48.9987 29.4005 48.4508Z" fill="white"/>
</svg>